<svg enable-background="new 0 0 128 128" viewBox="0 0 128 128" xmlns="http://www.w3.org/2000/svg" xmlns:xlink="http://www.w3.org/1999/xlink"><radialGradient id="a" cx="105.2816" cy="101.2407" gradientTransform="matrix(-.7143 -.6999 .1404 -.1433 163.4154 192.188)" gradientUnits="userSpaceOnUse" r="22.255"><stop offset="0"/><stop offset="1" stop-color="#504f4f"/></radialGradient><radialGradient id="b" cx="-68.1468" cy="637.1908" gradientTransform="matrix(0 1 1 0 -587.5256 120.0557)" gradientUnits="userSpaceOnUse" r="28.3897"><stop offset="0" stop-color="#fff"/><stop offset=".4787" stop-color="#fdfdfd"/><stop offset=".6903" stop-color="#f8f6f6"/><stop offset=".8488" stop-color="#eeebe9"/><stop offset=".9808" stop-color="#e1dad7"/><stop offset="1" stop-color="#ded7d4"/></radialGradient><radialGradient id="c" cx="41.607" cy="82.4656" gradientTransform="matrix(1 0 0 -1 0 129.2756)" gradientUnits="userSpaceOnUse" r="18.766"><stop offset=".0049261" stop-color="#fdbf00"/><stop offset=".167" stop-color="#fcb70b"/><stop offset=".5553" stop-color="#fba822"/><stop offset=".8029" stop-color="#faa32a"/><stop offset="1" stop-color="#fc923b"/></radialGradient><circle cx="49.78" cy="51.74" fill="#252525" r="45.44"/><path d="m80 82.29h6.23v4.65h-6.23z" fill="#504f4f" transform="matrix(.7071 -.7071 .7071 .7071 -35.4875 83.5545)"/><path d="m93.09 88.43-2.62-2.08-5.66 5.65 2.04 2.59c4.8 6.07 14.69 16.03 20.69 20.9l4.31 3.5c1.55 1.34 3.89 1.29 5.37-.18 1.47-1.47 1.52-3.81.18-5.37l-3.53-4.36c-4.83-5.99-14.75-15.86-20.78-20.65zm22.43 28.6c-.63.63-1.64.63-2.27 0s-.63-1.64 0-2.27 1.64-.63 2.27 0 .63 1.64 0 2.27z" fill="url(#a)"/><path d="m86.54 83.54-4.55 4.55c-.3.3-.3.79 0 1.09l2.84 2.84 5.64-5.64-2.84-2.84c-.31-.3-.79-.3-1.09 0z" fill="#333"/><path d="m49.78 7.42c24.44 0 44.32 19.88 44.32 44.32s-19.88 44.32-44.32 44.32-44.32-19.88-44.32-44.32 19.88-44.32 44.32-44.32m0-1.11c-25.09 0-45.44 20.34-45.44 45.44s20.34 45.44 45.44 45.44 45.44-20.34 45.44-45.44-20.35-45.44-45.44-45.44z" fill="#595858"/><circle cx="49.78" cy="51.74" fill="#575757" r="36.28"/><path d="m51.95 23.68c-5.28-.95-10.54 1.41-15.38 3.72-4.57 2.17-9.44 4.62-11.82 9.08-2.51 4.73-1.58 10.47-2.46 15.75-.53 3.19-1.71 6.62-.27 9.51 1.14 2.28 3.67 3.6 4.91 5.83.96 1.71 1.05 3.77 1.66 5.63.86 2.63 2.82 4.88 5.3 6.1s5.46 1.39 8.07.46c2.47-.88 4.69-2.71 7.31-2.73 1.82-.01 3.52.86 5.31 1.15 2.8.46 5.68-.55 7.98-2.2s4.09-3.91 5.74-6.22c1.64-2.31 3.17-4.7 4.69-7.09 1.44-2.25 2.89-4.53 3.82-7.03 1.95-5.21 1.48-11.26-1.24-16.11-2.6-4.63-6.61-7.07-11.36-9.03-4.44-1.82-7.2-5.91-12.26-6.82z" fill="url(#b)"/><path d="m49.81 35.55c9.69 0 15.93 5.86 15.93 15.55s-4.74 13.73-14.22 15.74c-9.86 2.09-18.2-6.24-18.2-15.93s6.8-15.36 16.49-15.36z" fill="#e6ddd6" opacity=".43"/><circle cx="49.9" cy="51.01" fill="url(#c)" r="14.31"/></svg>