<svg height="64" viewBox="0 0 64 64" width="64" xmlns="http://www.w3.org/2000/svg"><g fill="none" fill-rule="evenodd"><path d="m13 37h40v20.9971835c0 2.2106945-1.7964248 4.0028165-4.0000255 4.0028165h-31.999949c-2.2091531 0-4.0000255-1.7979383-4.0000255-4.0028165z" fill="#979797"/><path d="m21 37h24v25h-24z" fill="#595959"/><path d="m10 38.973v-4.973h45.881v5.156" stroke="#5ea7ff" stroke-linecap="round" stroke-width="2"/><g transform="matrix(.8660254 .5 -.5 .8660254 29.358727 12.60774)"><circle cx="20" cy="4" fill="#5ea7ff" r="4"/><path d="m0 8c0-2.209139 1.79642476-4 4.00002553-4h31.99994897c2.2091531 0 4.0000255 1.79535615 4.0000255 4v4h-40z" fill="#d8d8d8"/></g><path d="m12.7654144 28s4-5.7575758 1.5-9.5-3.4999998-5.469697 0-9.5m3.5 19s4-5.7575758 1.5-9.5-3.4999998-5.469697 0-9.5" stroke="#ffdd95" stroke-linecap="round" stroke-linejoin="round" stroke-width="2"/></g></svg>