<svg enable-background="new 0 0 512 512" viewBox="0 0 512 512" xmlns="http://www.w3.org/2000/svg"><path d="m103.93 501.029 149.512-149.512c4.049-4.049 4.049-10.613 0-14.661l-65.912-65.912c-4.049-4.049-10.613-4.049-14.661 0l-149.511 149.513c-10.552 10.552-10.552 27.661 0 38.213l42.36 42.36c10.552 10.552 27.66 10.552 38.212-.001z" fill="#2b3b47"/><path d="m169.906 273.908 270.354-270.354c4.272-4.272 11.255-4.059 15.257.467 25.102 28.386 86.692 138.398-156.394 381.484-39.619 39.619-129.217-111.597-129.217-111.597z" fill="#9cadb5"/><path d="m222.485 296.803c-5.119 0-10.237-1.952-14.142-5.857-7.811-7.811-7.811-20.475 0-28.284l96.967-96.968c7.811-7.811 20.475-7.811 28.285 0s7.811 20.474 0 28.284l-96.968 96.968c-3.905 3.904-9.023 5.857-14.142 5.857z" fill="#d7dfe2"/></svg>