<svg viewBox="0 0 72 72" xmlns="http://www.w3.org/2000/svg"><path d="m45.5606 6.871c2.2 0 4 1.79 4 4s-1.8 4-4 4v5.49.56h-19.28v-6.05c-1.1 0-2.1-.45-2.82-1.17-.73-.72-1.18-1.72-1.18-2.83 0-2.21 1.8-4 4-4 .88 0 1.68.29 2.34.76-.32-.57-.52-1.23-.52-1.94 0-2.21 1.79-4 4-4 1.82 0 3.34 1.22 3.82 2.88.48-1.66 2-2.88 3.82-2.88 2.21 0 4 1.79 4 4 0 .71-.2 1.37-.52 1.94.66-.47 1.46-.76 2.34-.76z" fill="#fff"/><path d="m47.2776 7.2563c-.9873-.6744-4.0588.3783-4.0588.3783 1.4981-3.7579-1.9342-5.6378-1.9342-5.6378s.7999 3.7291-1.5665 5.7485c-.254.2167-.4339.5065-.4339.8404v12.3027h.6366l.3124.0363h5.3232v-.5621-5.4946c2.209 0 4-1.7908 4-4 0-1.5929-.9311-2.9683-2.2788-3.6117l-.0183.3969" fill="#d0cfce"/><path d="m54.8582 57.8409s2-12.6315-10-12.6315c-3.1919 2.1279-5.9264 3.5984-9 3.5921h.125c-3.0736.0063-5.8081-1.4642-9-3.5921-12 0-10 12.6315-10 12.6315" fill="#fff"/><path d="m44.3271 45.2094c-3.1699 2.1133-9.076 6.2728-17.3439 0 .3845 5.5358 9.6727 10.6392 19.3119 5.8941l.4192 6.7374h8.1797s1.4331-12.6315-10.5669-12.6315z" fill="#d0cfce"/><path d="m45.844 20.9247h-19.863c-9.4573 12.2394-6.0158 17.6327-.9669 18.7829.9531.2171 1.9636.4115 2.9553.4115l15.8863-.1c6.2451 0 13.231-4.5445 1.9883-19.0944z" fill="#a57939"/><path d="m45.6315 20.8884h-9.0131l-11.8398 4.68c-.129.8557-.1965 1.7385-.1965 2.641 0 7.8276 5.0765 14.1732 11.3386 14.1732s11.3386-6.3456 11.3386-14.1732c0-2.6789-.5946-5.1842-1.6278-7.321z" fill="#fcea2b"/><path d="m47.832 39.6182c-.415 0-.8027-.2598-.9453-.6739-.1797-.5224.0967-1.0908.6192-1.2714 1.6582-.5723 2.7031-1.544 3.1045-2.8877.5957-1.9932.1142-5.9087-5.5577-13.2491-.3379-.437-.2578-1.0649.1797-1.4028.4375-.3384 1.0655-.2559 1.4024.1802 4.9707 6.4316 6.9521 11.4931 5.8916 15.0439-.5879 1.9678-2.0987 3.4229-4.3682 4.2061-.1084.0371-.2178.0547-.3262.0547z"/><path d="m23.6641 39.4971c-.1211 0-.2452-.0215-.3643-.0684-2.1103-.8271-3.5059-2.2764-4.0361-4.1933-.9805-3.544 1.0136-8.5645 5.9267-14.9219.336-.4361.9639-.5191 1.4024-.1802.4375.3379.5176.9658.1797 1.4028-5.6133 7.2647-6.1338 11.17-5.5811 13.166.3604 1.3038 1.3154 2.2676 2.8369 2.8633.5147.2022.7686.7823.5664 1.2959-.1543.3946-.5312.6358-.9306.6358z"/><path d="m48.26 28.2098c0 8.37-5.54 15.17-12.34 15.17s-12.34-6.8-12.34-15.17c0-.26.01-.52.02-.78.1-2.47.69-4.86 1.71-6.98.13-.26.36-.45.63-.52.02-.01.04-.01.06-.01.14 0 .28.03.42.1.49.25.7.84.46 1.34-.3.62-.93 1.48-1.67 2.48-.26.35-.55.74-.83 1.13.5-.19 1.06-.41 1.67-.63-.19.74-.32 1.51-.39 2.28-.05.53-.08 1.06-.08 1.59 0 7.26 4.64 13.17 10.34 13.17s10.34-5.91 10.34-13.17c0-2.44-.53-4.82-1.53-6.89-.24-.49-.03-1.09.47-1.33s1.09-.03 1.33.46c1.13 2.3399 1.73 5.02 1.73 7.76z"/><path d="m54.9207 57.8486c-.5522 0-1-.4478-1-1v-3c0-4.4517-4.4961-7.8106-8.6519-7.9922-6.205 5.0117-12.4912 5.0117-18.6962 0-4.1558.1816-8.6519 3.5405-8.6519 7.9922v3c0 .5522-.4478 1-1 1s-1-.4478-1-1v-3c0-5.3248 5.1401-9.9976 10.9995-10h.0005c.2339 0 .4604.082.6401.2319 5.625 4.6875 11.0948 4.6875 16.7198 0 .1796-.1499.4062-.2319.6401-.2319h.0005c5.8594.0024 10.9995 4.6752 10.9995 10v3c0 .5522-.4478 1-1 1z"/><path d="m41.9208 26.8486c0 1.1045-.8965 2-2 2s-2-.8955-2-2c0-1.1035.8965-2 2-2s2 .8965 2 2z"/><path d="m33.9208 26.8486c0 1.1045-.8965 2-2 2s-2-.8955-2-2c0-1.1035.8965-2 2-2s2 .8965 2 2z"/><path d="m35.9207 36.851c-1.1519 0-2.3037-.2861-3.4473-.8579-.4941-.2471-.6943-.8477-.4472-1.3418.2465-.4937.8462-.6943 1.3418-.4473 1.7177.8594 3.3877.8594 5.1054 0 .4947-.247 1.0948-.0464 1.3418.4473.2471.4941.0469 1.0947-.4472 1.3418-1.1436.5718-2.2954.8579-3.4473.8579z"/><path d="m46.7393 57.8564c-.5528 0-1-.4472-1-1v-4.5214c-5.7549 1.7822-10.5928 1.7441-14.3916-.1133-4.3594-2.1309-5.669-5.8867-5.7227-6.0459-.1768-.5225.1045-1.0899.6279-1.2666.5215-.1768 1.0889.1035 1.2657.624.0205.0576 1.1503 3.1729 4.749 4.9121 3.5879 1.7344 8.3476 1.5879 14.1416-.4365.3056-.1045.6445-.0586.9092.1289.2636.1875.4209.4912.4209.8154v5.9033c0 .5528-.4473 1-1 1z"/><circle cx="28.4208" cy="55.8486" r="1.5"/><circle cx="43.4209" cy="55.8486" r="1.5"/><path d="m37.37 22.1398c-4.86 1.85-9.03 3.45-11.71 4.48-.2.08-.39.15-.5699.22l-1.4.55c-.03.01-.06.02-.09.04-.6.25-1.04.63-1.05.64-.19.16-.42.24-.66.24-.18 0-.36-.04-.52-.14-.37-.23-.56-.68-.45-1.1.3-1.19 1.51-2.83 2.68-4.42.62-.84 1.26-1.71 1.48-2.16.16-.34.5-.55.86-.56.02-.01.04-.01.06-.01.14 0 .28.03.42.1.49.25.7.84.46 1.34-.3.62-.93 1.48-1.67 2.48-.26.35-.55.74-.83 1.13.5-.19 1.06-.41 1.67-.63 2.66-1.04 6.37-2.46 10.61-4.07.51-.19 1.09.07 1.29.58.1999.52-.0601 1.1-.5801 1.29z"/><path d="m26.2852 21.9248c-.5528 0-1-.4477-1-1v-5.1572c-2.2793-.4644-4-2.4849-4-4.8994 0-2.7569 2.2431-5 5-5 .2763 0 .5488.0229.8173.0678-.0039-.082-.0058-.1645-.0058-.2475 0-2.7569 2.2431-5 5-5 .5527 0 1 .4477 1 1 0 .5522-.4473 1-1 1-1.6543 0-3 1.3457-3 3 0 .4966.1338.9868.3974 1.457.086.1538.128.3223.128.4888 0 .2783-.1162.5522-.335.7475-.3506.3125-.8721.3374-1.2519.0625-.5196-.3769-1.125-.5761-1.75-.5761-1.6543 0-3 1.3457-3 3s1.3457 3 3 3c.5527 0 1 .4477 1 1v6.0566c0 .5523-.4473 1-1 1z"/><path d="m35.9209 5.5762c-.4443 0-.8359-.2935-.96-.7207-.3779-1.2959-1.5283-2.167-2.8642-2.167-.5528 0-1-.4478-1-1 0-.5523.4472-1 1-1 1.501 0 2.8945.6914 3.8242 1.8066.9297-1.1152 2.3223-1.8066 3.8232-1.8066.5528 0 1 .4477 1 1 0 .5522-.4472 1-1 1-1.3349 0-2.4853.8711-2.8632 2.167-.1241.4272-.5157.7207-.96.7207z"/><path d="m45.5566 21.9248h-19.2714c-.5528 0-1-.4477-1-1 0-.5522.4472-1 1-1h18.2714v-5.0566c0-.5523.4473-1 1-1 1.6543 0 3-1.3457 3-3s-1.3457-3-3-3c-.625 0-1.2304.1992-1.7509.5766-.3799.274-.9014.2486-1.252-.0635-.3516-.3129-.4365-.8271-.206-1.2368.2627-.4682.3964-.958.3964-1.456 0-1.6543-1.3457-3-3-3-.5527 0-1-.4478-1-1 0-.5523.4473-1 1-1 2.7569 0 5 2.2431 5 5 0 .083-.0019.1655-.0058.248.2685-.0454.542-.0683.8183-.0683 2.7569 0 5 2.2431 5 5 0 2.4145-1.7207 4.435-4 4.8994v5.1572c0 .5523-.4472 1-1 1z"/></svg>